<?xml version="1.0" encoding="iso-8859-1"?>
<!-- Generator: Adobe Illustrator 23.0.4, SVG Export Plug-In . SVG Version: 6.00 Build 0)  -->
<svg version="1.1" id="Layer_1_1_" xmlns="http://www.w3.org/2000/svg" xmlns:xlink="http://www.w3.org/1999/xlink" x="0px" y="0px"
	 viewBox="0 0 64 64" style="enable-background:new 0 0 64 64;" xml:space="preserve">
<g>
	<circle style="fill:#F94660;" cx="32" cy="13" r="11"/>
</g>
<g>
	<circle style="fill:#EFEFEF;" cx="32" cy="13" r="9"/>
</g>
<g>
	<circle style="fill:#F94660;" cx="32" cy="13" r="7"/>
</g>
<g>
	<circle style="fill:#EFEFEF;" cx="32" cy="13" r="5"/>
</g>
<g>
	<path style="fill:#78DCFF;" d="M62,62H48v-2c0-3.866,3.134-7,7-7h0c3.866,0,7,3.134,7,7V62z"/>
</g>
<g>
	<circle style="fill:#F94660;" cx="32" cy="13" r="3"/>
</g>
<g>
	<circle style="fill:#E6C09A;" cx="55" cy="49" r="4"/>
</g>
<g>
	<circle style="fill:#E6C09A;" cx="9" cy="49" r="4"/>
</g>
<g>
	<path style="fill:#78DCFF;" d="M16,62H2v-2c0-3.866,3.134-7,7-7h0c3.866,0,7,3.134,7,7V62z"/>
</g>
<g>
	<path style="fill:#777777;" d="M39.521,53.706C39.669,53.293,40.037,53,40.476,53H42v-4h-1.524c-0.439,0-0.807-0.293-0.955-0.706
		c-0.086-0.239-0.182-0.472-0.289-0.699c-0.187-0.397-0.134-0.864,0.177-1.175l1.077-1.077l-2.828-2.828l-1.077,1.077
		c-0.31,0.31-0.778,0.364-1.175,0.177c-0.227-0.107-0.461-0.204-0.699-0.289C34.293,43.331,34,42.963,34,42.524V41h-4v1.524
		c0,0.439-0.293,0.807-0.706,0.955c-0.239,0.086-0.472,0.182-0.699,0.289c-0.397,0.187-0.864,0.134-1.175-0.177l-1.077-1.077
		l-2.828,2.828l1.077,1.077c0.31,0.31,0.364,0.778,0.177,1.175c-0.107,0.227-0.204,0.461-0.289,0.699
		C24.331,48.707,23.963,49,23.524,49H22v4h1.524c0.439,0,0.807,0.293,0.955,0.706c0.086,0.239,0.182,0.472,0.289,0.699
		c0.187,0.397,0.134,0.864-0.177,1.175l-1.077,1.077l2.828,2.828l1.077-1.077c0.31-0.31,0.778-0.364,1.175-0.177
		c0.227,0.107,0.461,0.204,0.699,0.289C29.707,58.669,30,59.037,30,59.476V61h4v-1.524c0-0.439,0.293-0.807,0.706-0.955
		c0.239-0.086,0.472-0.182,0.699-0.289c0.397-0.187,0.864-0.134,1.175,0.177l1.077,1.077l2.828-2.828l-1.077-1.077
		c-0.31-0.31-0.364-0.778-0.177-1.175C39.339,54.177,39.435,53.944,39.521,53.706z M32,55c-2.209,0-4-1.791-4-4c0-2.209,1.791-4,4-4
		s4,1.791,4,4C36,53.209,34.209,55,32,55z"/>
</g>
<polygon style="fill:#545454;" points="33,22 35,22 32,17 29,22 31,22 31,31.333 29,34 29,38 32,35 35,38 35,34 33,31.333 "/>
</svg>
